<?xml version="1.0" encoding="UTF-8"?>
<svg id="Layer_2" data-name="Layer 2" xmlns="http://www.w3.org/2000/svg" viewBox="0 0 419.6 113.69">
  <defs>
    <style>
      .cls-1 {
        fill: #050f21;
      }

      .cls-2 {
        fill: #f7941d;
      }
    </style>
  </defs>
  <g id="Layer_1-2" data-name="Layer 1">
    <g>
      <g>
        <path class="cls-2" d="m119.29,73.77c-.31-22.83-.63-45.65-.94-68.47-26.28.11-38.09,5.62-43.96,10.88-2.06,1.84-9.27,7.81-20.3,13.12-1.84.88-3.96,1.62-6.73,2.21-12.35,2.66-21.19-1.05-31.45,5.29-4.99,3.08-8.48,7.42-8.67,7.66-.93,1.18-3.7,4.84-5.51,10.31-2.77,8.36-1.59,15.78-.72,19.45h20.71c-.5-1.86-2.2-9.04,1.64-16.47,2.45-4.74,6.02-7.39,7.88-8.59,1.23-.74,10.03-5.89,19.18-2.35,9.46,3.66,15.45,15.12,13.06,27.41,18.6-.15,37.21-.3,55.81-.45Zm-45.76-44.24c13.37-14.06,33.64-13.18,38.7-12.82-.04,6.55-.07,13.09-.11,19.64-14.87.51-29.73,1.02-44.59,1.53,1.49-2.8,3.44-5.66,6-8.35Z"/>
        <circle class="cls-2" cx="42.5" cy="67.98" r="17.82"/>
      </g>
      <g>
        <path class="cls-1" d="m128.59,73.5V4.9h22.69c4.74,0,9.18.89,13.33,2.67,4.15,1.78,7.79,4.25,10.93,7.4,3.14,3.15,5.59,6.79,7.38,10.93,1.78,4.13,2.67,8.57,2.67,13.3s-.89,9.17-2.67,13.3c-1.78,4.13-4.24,7.77-7.38,10.93-3.14,3.15-6.78,5.62-10.93,7.4-4.15,1.78-8.59,2.67-13.33,2.67h-22.69Zm10.19-10.19h12.5c3.33,0,6.44-.62,9.33-1.86,2.89-1.24,5.46-2.97,7.69-5.19,2.24-2.22,3.98-4.79,5.22-7.69,1.24-2.91,1.86-6.03,1.86-9.36s-.62-6.45-1.86-9.36c-1.24-2.91-2.98-5.47-5.22-7.69-2.24-2.22-4.8-3.95-7.69-5.19-2.89-1.24-6-1.86-9.33-1.86h-12.5v48.22Z"/>
        <path class="cls-1" d="m214.78,74.77c-4.51,0-8.62-1.16-12.32-3.48-3.71-2.32-6.66-5.43-8.87-9.33-2.2-3.9-3.31-8.22-3.31-12.96,0-3.59.64-6.95,1.91-10.07,1.27-3.12,3.03-5.86,5.27-8.23,2.24-2.37,4.84-4.22,7.82-5.56,2.97-1.34,6.14-2.01,9.51-2.01,3.76,0,7.2.78,10.34,2.33,3.14,1.55,5.81,3.69,8.04,6.42,2.22,2.73,3.85,5.86,4.9,9.41,1.04,3.54,1.35,7.31.93,11.29h-37.78c.42,2.25,1.25,4.29,2.47,6.1,1.22,1.81,2.79,3.24,4.7,4.29,1.91,1.05,4.04,1.58,6.39,1.62,2.48,0,4.74-.62,6.79-1.86,2.04-1.24,3.72-2.96,5.02-5.15l10.34,2.4c-1.96,4.34-4.92,7.9-8.87,10.66-3.95,2.76-8.38,4.14-13.28,4.14Zm-13.92-29.99h27.83c-.33-2.35-1.15-4.48-2.47-6.39s-2.97-3.43-4.95-4.56c-1.98-1.13-4.14-1.69-6.49-1.69s-4.47.56-6.44,1.67c-1.98,1.11-3.61,2.62-4.9,4.53-1.29,1.91-2.15,4.06-2.57,6.44Z"/>
        <path class="cls-1" d="m272.89,73.5h-13.08l-17.88-49.1h10.88l13.52,37.34,13.57-37.34h10.83l-17.84,49.1Z"/>
        <path class="cls-1" d="m334.54,24.5h10.19v49h-10.24l-.39-7.1c-1.44,2.52-3.38,4.54-5.83,6.08-2.45,1.53-5.34,2.3-8.67,2.3-3.59,0-6.98-.68-10.14-2.03-3.17-1.36-5.95-3.24-8.35-5.66-2.4-2.42-4.27-5.2-5.61-8.35-1.34-3.15-2.01-6.54-2.01-10.17s.65-6.79,1.96-9.87c1.31-3.09,3.12-5.79,5.44-8.11,2.32-2.32,5.01-4.14,8.06-5.46,3.05-1.32,6.33-1.98,9.83-1.98s6.7.81,9.43,2.43c2.73,1.62,4.99,3.68,6.79,6.2l-.44-7.25Zm-15.19,40.43c2.87,0,5.39-.71,7.55-2.13s3.83-3.34,5.02-5.76c1.19-2.42,1.79-5.1,1.79-8.04s-.6-5.67-1.81-8.09c-1.21-2.42-2.88-4.34-5.02-5.76-2.14-1.42-4.65-2.13-7.52-2.13s-5.44.72-7.79,2.16c-2.35,1.44-4.21,3.37-5.59,5.78-1.37,2.42-2.06,5.1-2.06,8.04s.71,5.66,2.13,8.06c1.42,2.4,3.3,4.31,5.63,5.73,2.33,1.42,4.89,2.13,7.67,2.13Z"/>
        <path class="cls-1" d="m398.97,42.78v30.72h-10.19v-28.22c0-2.19-.53-4.18-1.59-5.98-1.06-1.8-2.48-3.23-4.26-4.29-1.78-1.06-3.78-1.59-6-1.59s-4.13.53-5.93,1.59c-1.8,1.06-3.23,2.49-4.31,4.29-1.08,1.8-1.62,3.79-1.62,5.98v28.22h-10.19V0h10.19v29.69c1.7-2.03,3.79-3.63,6.27-4.8,2.48-1.18,5.16-1.76,8.04-1.76,3.63,0,6.93.88,9.9,2.65,2.97,1.76,5.33,4.13,7.08,7.11,1.75,2.97,2.62,6.27,2.62,9.9Z"/>
        <path class="cls-1" d="m413.96,17.4c-1.57,0-2.88-.51-3.92-1.52-1.05-1.01-1.57-2.29-1.57-3.82s.52-2.77,1.57-3.8c1.04-1.03,2.33-1.54,3.87-1.54s2.78.51,3.82,1.54c1.05,1.03,1.57,2.3,1.57,3.8s-.51,2.81-1.54,3.82c-1.03,1.01-2.3,1.52-3.8,1.52Zm-5.19,7.1h10.19v49h-10.19V24.5Z"/>
      </g>
      <g>
        <path class="cls-1" d="m142.52,108.3l2.79,1.51c-.84,1.18-1.91,2.12-3.21,2.83s-2.7,1.06-4.21,1.06c-1.71,0-3.27-.44-4.68-1.32-1.41-.88-2.53-2.06-3.37-3.54-.84-1.48-1.25-3.12-1.25-4.92,0-1.36.24-2.64.72-3.82.48-1.18,1.15-2.23,2-3.13.85-.9,1.84-1.6,2.97-2.11,1.13-.51,2.33-.76,3.61-.76,1.51,0,2.92.35,4.21,1.06s2.36,1.65,3.21,2.85l-2.79,1.51c-.6-.73-1.3-1.3-2.12-1.69s-1.65-.6-2.51-.6c-1.15,0-2.2.31-3.13.92-.94.61-1.68,1.43-2.22,2.45s-.82,2.13-.82,3.33.28,2.31.83,3.32c.55,1.01,1.3,1.82,2.23,2.43.94.61,1.97.91,3.11.91.92,0,1.78-.21,2.59-.63.81-.42,1.49-.97,2.05-1.64Z"/>
        <path class="cls-1" d="m163.28,94.61h3.13v18.6h-3.13l-.13-3.14c-.58,1.08-1.39,1.95-2.41,2.62-1.02.67-2.24,1-3.66,1s-2.64-.26-3.83-.77-2.24-1.23-3.15-2.14c-.91-.91-1.62-1.96-2.13-3.15s-.76-2.47-.76-3.85.25-2.58.74-3.76,1.19-2.21,2.07-3.1,1.91-1.58,3.08-2.08c1.17-.5,2.42-.75,3.76-.75,1.46,0,2.75.34,3.85,1.03,1.1.69,2,1.58,2.68,2.67l-.11-3.18Zm-6.25,16.05c1.23,0,2.29-.3,3.19-.9.9-.6,1.59-1.42,2.08-2.45.49-1.03.74-2.16.74-3.4s-.25-2.41-.74-3.43-1.19-1.84-2.09-2.44c-.9-.6-1.96-.9-3.17-.9s-2.34.3-3.35.91c-1,.61-1.8,1.42-2.39,2.45-.59,1.02-.88,2.16-.88,3.41s.3,2.39.91,3.41c.61,1.02,1.41,1.84,2.42,2.44,1,.6,2.1.9,3.29.9Z"/>
        <path class="cls-1" d="m179.74,94.09c1.81,0,3.46.44,4.94,1.32,1.48.88,2.66,2.06,3.54,3.54.88,1.48,1.32,3.13,1.32,4.94,0,1.35-.25,2.62-.76,3.8-.51,1.18-1.21,2.23-2.11,3.13s-1.94,1.6-3.12,2.11c-1.18.51-2.45.76-3.8.76-1.44,0-2.69-.34-3.75-1.01-1.06-.67-1.91-1.56-2.54-2.65v3.18h-3.12v-27.9h3.12v12.44c.63-1.09,1.48-1.97,2.54-2.65,1.06-.68,2.31-1.01,3.75-1.01Zm-.04,16.55c1.23,0,2.34-.3,3.35-.91s1.8-1.42,2.4-2.45c.6-1.02.89-2.15.89-3.39s-.3-2.41-.91-3.43c-.61-1.02-1.41-1.84-2.42-2.44-1-.6-2.11-.9-3.31-.9s-2.27.3-3.17.91-1.59,1.43-2.08,2.45-.73,2.16-.73,3.4.24,2.39.73,3.41c.49,1.02,1.19,1.84,2.09,2.44s1.96.9,3.16.9Z"/>
        <path class="cls-1" d="m201.82,113.21v-18.6h3.12v2.33c.66-.87,1.49-1.56,2.49-2.07s2.1-.77,3.27-.77c.72,0,1.41.09,2.08.28l-1.26,3.13c-.51-.16-1-.24-1.49-.24-.93,0-1.78.23-2.56.68-.78.45-1.39,1.06-1.85,1.83s-.69,1.63-.69,2.57v10.88h-3.12Z"/>
        <path class="cls-1" d="m222.29,113.69c-1.71,0-3.27-.44-4.68-1.32-1.41-.88-2.53-2.06-3.37-3.54-.84-1.48-1.25-3.12-1.25-4.92,0-1.36.24-2.64.72-3.82.48-1.18,1.15-2.23,2-3.13.85-.9,1.84-1.6,2.97-2.11,1.13-.51,2.33-.76,3.61-.76,1.4,0,2.69.28,3.86.85,1.17.56,2.18,1.35,3.01,2.35.84,1,1.46,2.17,1.88,3.5.42,1.33.57,2.75.46,4.26h-15.18c.15,1.05.5,1.99,1.04,2.82.55.82,1.24,1.48,2.09,1.96.85.48,1.79.73,2.84.74,1.12,0,2.13-.29,3.03-.87.9-.58,1.64-1.37,2.19-2.37l3.18.74c-.74,1.65-1.87,3-3.37,4.05-1.5,1.05-3.18,1.57-5.04,1.57Zm-6.06-11.1h12.13c-.1-1.04-.43-1.99-1-2.85-.57-.86-1.3-1.55-2.18-2.08-.88-.52-1.84-.78-2.88-.78s-2,.25-2.86.76c-.87.51-1.58,1.19-2.15,2.05s-.92,1.83-1.05,2.89Z"/>
        <path class="cls-1" d="m251.11,101.64v11.57h-3.12v-10.88c0-.94-.23-1.8-.69-2.57-.46-.77-1.07-1.38-1.84-1.83s-1.62-.68-2.57-.68-1.78.23-2.56.68c-.78.45-1.39,1.06-1.85,1.83s-.69,1.63-.69,2.57v10.88h-3.12v-18.6h3.12v2.33c.66-.87,1.49-1.56,2.49-2.07s2.1-.77,3.27-.77c1.39,0,2.66.34,3.8,1.01s2.06,1.58,2.73,2.73,1.01,2.41,1.01,3.81Z"/>
        <path class="cls-1" d="m264.46,97.73h-4.22l-.02,15.47h-3.12l.02-15.47h-3.2v-3.13h3.2l-.02-5.84h3.12l.02,5.84h4.22v3.13Z"/>
        <path class="cls-1" d="m282.26,94.61h3.13v18.6h-3.13l-.13-3.14c-.58,1.08-1.39,1.95-2.41,2.62-1.02.67-2.24,1-3.66,1s-2.64-.26-3.83-.77-2.24-1.23-3.15-2.14c-.91-.91-1.62-1.96-2.13-3.15s-.76-2.47-.76-3.85.25-2.58.74-3.76,1.19-2.21,2.07-3.1,1.91-1.58,3.08-2.08c1.17-.5,2.42-.75,3.76-.75,1.46,0,2.75.34,3.85,1.03,1.1.69,2,1.58,2.68,2.67l-.11-3.18Zm-6.25,16.05c1.23,0,2.29-.3,3.19-.9.9-.6,1.59-1.42,2.08-2.45.49-1.03.74-2.16.74-3.4s-.25-2.41-.74-3.43-1.19-1.84-2.09-2.44c-.9-.6-1.96-.9-3.17-.9s-2.34.3-3.35.91c-1,.61-1.8,1.42-2.39,2.45-.59,1.02-.88,2.16-.88,3.41s.3,2.39.91,3.41c.61,1.02,1.41,1.84,2.42,2.44,1,.6,2.1.9,3.29.9Z"/>
        <path class="cls-1" d="m289.31,113.21v-27.9h3.12v27.9h-3.12Z"/>
        <path class="cls-1" d="m311.5,113.56c-1-.04-1.98-.23-2.93-.57s-1.78-.81-2.49-1.4c-.71-.59-1.23-1.27-1.55-2.04l2.68-1.15c.19.42.52.82,1,1.19.48.37,1.04.67,1.67.89.63.22,1.27.34,1.92.34.68,0,1.32-.11,1.91-.32.6-.21,1.08-.52,1.46-.94.38-.42.57-.91.57-1.5,0-.62-.21-1.11-.62-1.46-.42-.35-.94-.63-1.56-.84s-1.26-.4-1.91-.59c-1.28-.32-2.42-.71-3.42-1.16-1-.45-1.79-1.03-2.37-1.73s-.86-1.6-.86-2.69c0-1.15.32-2.15.96-2.99.64-.84,1.48-1.49,2.52-1.95,1.04-.46,2.16-.69,3.35-.69,1.5,0,2.87.32,4.11.97s2.16,1.52,2.77,2.62l-2.51,1.47c-.21-.45-.53-.84-.97-1.18-.43-.34-.93-.61-1.49-.81-.56-.2-1.13-.3-1.71-.32-.72-.03-1.39.07-2.02.28-.63.21-1.13.53-1.51.96-.38.43-.57.96-.57,1.59s.2,1.09.6,1.41c.4.32.93.58,1.58.77.65.19,1.36.41,2.13.66,1.13.36,2.18.77,3.16,1.25.98.47,1.77,1.06,2.37,1.77.6.71.9,1.58.88,2.62,0,1.14-.34,2.14-1.02,2.99-.68.85-1.57,1.5-2.65,1.94-1.08.45-2.25.65-3.49.6Z"/>
        <path class="cls-1" d="m329.88,113.69c-1.71,0-3.27-.44-4.68-1.32-1.41-.88-2.53-2.06-3.37-3.54-.84-1.48-1.25-3.12-1.25-4.92,0-1.36.24-2.64.72-3.82.48-1.18,1.15-2.23,2-3.13.85-.9,1.84-1.6,2.97-2.11,1.13-.51,2.33-.76,3.61-.76,1.4,0,2.69.28,3.86.85,1.17.56,2.18,1.35,3.01,2.35.84,1,1.46,2.17,1.88,3.5.42,1.33.57,2.75.46,4.26h-15.18c.15,1.05.5,1.99,1.04,2.82.55.82,1.24,1.48,2.09,1.96.85.48,1.79.73,2.84.74,1.12,0,2.13-.29,3.03-.87.9-.58,1.64-1.37,2.19-2.37l3.18.74c-.74,1.65-1.87,3-3.37,4.05-1.5,1.05-3.18,1.57-5.04,1.57Zm-6.06-11.1h12.13c-.1-1.04-.43-1.99-1-2.85-.57-.86-1.3-1.55-2.18-2.08-.88-.52-1.84-.78-2.88-.78s-2,.25-2.86.76c-.87.51-1.58,1.19-2.15,2.05s-.92,1.83-1.05,2.89Z"/>
        <path class="cls-1" d="m342.25,113.21v-18.6h3.12v2.33c.66-.87,1.49-1.56,2.49-2.07s2.1-.77,3.27-.77c.72,0,1.41.09,2.08.28l-1.26,3.13c-.51-.16-1-.24-1.49-.24-.93,0-1.78.23-2.56.68-.78.45-1.39,1.06-1.85,1.83s-.69,1.63-.69,2.57v10.88h-3.12Z"/>
        <path class="cls-1" d="m365.49,113.21h-4l-6.79-18.64h3.33l5.45,15.01,5.45-15.01h3.33l-6.77,18.64Z"/>
        <path class="cls-1" d="m376.88,91.58c-.5,0-.91-.16-1.25-.48-.34-.32-.5-.72-.5-1.21s.17-.89.5-1.21c.34-.32.74-.48,1.23-.48s.89.16,1.23.48c.34.32.5.72.5,1.21s-.16.89-.49,1.21c-.33.32-.73.48-1.22.48Zm-1.6,3.03h3.12v18.6h-3.12v-18.6Z"/>
        <path class="cls-1" d="m395.44,108.3l2.79,1.51c-.84,1.18-1.91,2.12-3.21,2.83s-2.7,1.06-4.21,1.06c-1.71,0-3.27-.44-4.68-1.32-1.41-.88-2.53-2.06-3.37-3.54-.84-1.48-1.25-3.12-1.25-4.92,0-1.36.24-2.64.72-3.82.48-1.18,1.15-2.23,2-3.13.85-.9,1.84-1.6,2.97-2.11,1.13-.51,2.33-.76,3.61-.76,1.51,0,2.92.35,4.21,1.06s2.36,1.65,3.21,2.85l-2.79,1.51c-.6-.73-1.3-1.3-2.12-1.69s-1.65-.6-2.51-.6c-1.15,0-2.2.31-3.13.92-.94.61-1.68,1.43-2.22,2.45s-.82,2.13-.82,3.33.28,2.31.83,3.32c.55,1.01,1.3,1.82,2.23,2.43.94.61,1.97.91,3.11.91.92,0,1.78-.21,2.59-.63.81-.42,1.49-.97,2.05-1.64Z"/>
        <path class="cls-1" d="m409.43,113.69c-1.71,0-3.27-.44-4.68-1.32-1.41-.88-2.53-2.06-3.37-3.54-.84-1.48-1.25-3.12-1.25-4.92,0-1.36.24-2.64.72-3.82.48-1.18,1.15-2.23,2-3.13.85-.9,1.84-1.6,2.97-2.11,1.13-.51,2.33-.76,3.61-.76,1.4,0,2.69.28,3.86.85,1.17.56,2.18,1.35,3.01,2.35.84,1,1.46,2.17,1.88,3.5.42,1.33.57,2.75.46,4.26h-15.18c.15,1.05.5,1.99,1.04,2.82.55.82,1.24,1.48,2.09,1.96.85.48,1.79.73,2.84.74,1.12,0,2.13-.29,3.03-.87.9-.58,1.64-1.37,2.19-2.37l3.18.74c-.74,1.65-1.87,3-3.37,4.05-1.5,1.05-3.18,1.57-5.04,1.57Zm-6.06-11.1h12.13c-.1-1.04-.43-1.99-1-2.85-.57-.86-1.3-1.55-2.18-2.08-.88-.52-1.84-.78-2.88-.78s-2,.25-2.86.76c-.87.51-1.58,1.19-2.15,2.05s-.92,1.83-1.05,2.89Z"/>
      </g>
      <circle class="cls-2" cx="414.03" cy="12.11" r="5.58"/>
    </g>
  </g>
</svg>