<?xml version="1.0" encoding="UTF-8"?>
<svg id="Layer_2" data-name="Layer 2" xmlns="http://www.w3.org/2000/svg" viewBox="0 0 134.83 33.09">
  <defs>
    <style>
      .cls-1 {
        fill: #0d213f;
      }

      .cls-2 {
        fill: #f7941d;
      }
    </style>
  </defs>
  <g id="Layer_1-2" data-name="Layer 1">
    <g>
      <g>
        <g>
          <path class="cls-2" d="m38.6,23.87c-.1-7.39-.2-14.77-.3-22.15-8.51.03-12.33,1.81-14.23,3.52-.66.59-2.99,2.52-6.56,4.24-.6.29-1.29.52-2.18.72-4,.86-6.86-.34-10.18,1.71-1.61,1-2.74,2.4-2.8,2.47-.3.39-1.2,1.57-1.79,3.34-.89,2.71-.51,5.11-.23,6.29h6.7c-.16-.6-.71-2.92.53-5.32.8-1.54,1.95-2.4,2.55-2.78.4-.24,3.25-1.91,6.21-.76,3.06,1.18,5,4.89,4.22,8.86,6.02-.04,12.04-.09,18.06-.14Zm-14.81-14.31c4.33-4.55,10.89-4.27,12.53-4.15-.02,2.12-.03,4.23-.04,6.35-4.81.17-9.62.33-14.43.5.49-.91,1.12-1.83,1.94-2.7Z"/>
          <circle class="cls-2" cx="13.75" cy="22" r="5.77"/>
        </g>
        <g>
          <path class="cls-1" d="m57.69,8.38c-.57-1.34-1.37-2.51-2.38-3.54-1.02-1.01-2.19-1.81-3.54-2.39-1.34-.57-2.78-.86-4.31-.86h-7.34v22.19h7.34c1.53,0,2.97-.29,4.31-.86,1.35-.58,2.52-1.38,3.54-2.4,1.01-1.02,1.81-2.19,2.38-3.53.58-1.34.87-2.77.87-4.31s-.29-2.96-.87-4.3Zm-3.03,7.33c-.4.94-.97,1.77-1.69,2.49-.72.72-1.55,1.28-2.49,1.68-.93.4-1.94.6-3.02.6h-4.04V4.88h4.04c1.08,0,2.09.21,3.02.61.94.4,1.77.96,2.49,1.68.72.72,1.29,1.55,1.69,2.49s.6,1.95.6,3.02-.2,2.09-.6,3.03Z"/>
          <path class="cls-1" d="m75.54,13.36c-.34-1.15-.87-2.16-1.59-3.05-.72-.88-1.58-1.57-2.6-2.07-1.01-.5-2.13-.76-3.34-.76-1.09,0-2.12.22-3.08.65-.96.44-1.8,1.04-2.53,1.8-.72.77-1.29,1.66-1.7,2.67-.41,1.01-.62,2.09-.62,3.25,0,1.54.36,2.94,1.07,4.2s1.67,2.27,2.87,3.02c1.2.75,2.53,1.12,3.99,1.12,1.58,0,3.01-.44,4.29-1.34,1.28-.89,2.24-2.04,2.87-3.44l-3.34-.78c-.43.71-.97,1.26-1.63,1.66-.66.41-1.39.61-2.19.61-.76-.01-1.45-.19-2.07-.53-.62-.34-1.13-.8-1.52-1.38-.4-.59-.67-1.25-.8-1.98h12.22c.13-1.29.03-2.51-.3-3.65Zm-12.04,1.13c.14-.77.42-1.47.84-2.08.41-.62.94-1.11,1.58-1.47.64-.36,1.34-.54,2.09-.54s1.46.18,2.1.55c.64.36,1.17.85,1.6,1.47.43.62.69,1.31.8,2.07h-9.01Z"/>
          <path class="cls-1" d="m89.07,7.9l-4.39,12.08-4.37-12.08h-3.52l5.78,15.88h4.24l5.77-15.88h-3.51Z"/>
          <path class="cls-1" d="m106.75,7.93l.14,2.34c-.58-.81-1.31-1.48-2.19-2-.89-.52-1.9-.79-3.05-.79s-2.19.22-3.18.65c-.99.42-1.86,1.01-2.61,1.76s-1.34,1.63-1.76,2.63-.63,2.06-.63,3.19.21,2.27.65,3.29c.43,1.02,1.03,1.92,1.81,2.7.78.79,1.68,1.4,2.7,1.84,1.03.43,2.12.65,3.29.65,1.07,0,2.01-.25,2.8-.74.79-.5,1.42-1.15,1.89-1.97l.12,2.3h3.32V7.93h-3.3Zm-.85,10.52c-.38.79-.93,1.41-1.62,1.87-.7.46-1.51.69-2.44.69s-1.73-.23-2.49-.69c-.75-.46-1.36-1.08-1.82-1.86-.46-.77-.69-1.64-.69-2.61s.22-1.81.67-2.6c.44-.78,1.04-1.4,1.81-1.87.76-.46,1.6-.69,2.52-.69s1.74.23,2.43.69c.69.46,1.23,1.08,1.62,1.86.4.78.59,1.65.59,2.61s-.19,1.82-.58,2.6Z"/>
          <path class="cls-1" d="m126.75,10.64c-.57-.96-1.33-1.73-2.29-2.3-.96-.57-2.03-.86-3.2-.86-.93,0-1.8.19-2.6.58-.81.38-1.48.89-2.03,1.55V0h-3.3v23.78h3.3v-9.13c0-.71.17-1.35.52-1.93.35-.59.81-1.05,1.39-1.39.59-.34,1.23-.52,1.92-.52s1.37.18,1.94.52c.58.34,1.04.8,1.38,1.39.35.58.52,1.22.52,1.93v9.13h3.3v-9.94c0-1.17-.29-2.24-.85-3.2Z"/>
          <path class="cls-1" d="m130.77,7.93v15.85h3.29V7.93h-3.29Zm2.9-5.26c-.34-.33-.75-.5-1.24-.5s-.91.17-1.25.5c-.09.09-.16.17-.22.27-.14.19-.23.41-.26.65-.02.1-.03.2-.03.31,0,.12.01.24.03.36-.01.01,0,.02,0,.02.07.33.23.62.48.86.34.33.76.49,1.27.49.48,0,.89-.16,1.23-.49.33-.33.49-.74.49-1.24s-.16-.89-.5-1.23Z"/>
        </g>
        <g>
          <path class="cls-2" d="m78.18,32.21c-.14.07-.29.1-.44.1-.2,0-.39-.05-.55-.16-.17-.11-.3-.26-.4-.44-.09-.18-.14-.37-.14-.58s.05-.42.14-.6c.1-.18.23-.32.39-.43.17-.11.35-.17.56-.17.14,0,.29.03.43.1.14.07.26.16.36.29l.7-.38c-.17-.24-.39-.43-.65-.57s-.54-.22-.84-.22c-.26,0-.5.06-.73.16-.22.1-.42.24-.59.42-.17.18-.31.39-.4.63-.1.24-.15.49-.15.77,0,.36.09.69.25.98.17.3.4.54.68.71.28.18.59.27.94.27.3,0,.58-.07.84-.21.26-.15.48-.33.65-.57l-.7-.38c-.09.12-.21.21-.35.28Z"/>
          <path class="cls-2" d="m82.71,29.26l.04.55c-.14-.19-.31-.35-.52-.47-.21-.12-.45-.19-.72-.19s-.51.05-.75.16c-.23.1-.43.24-.61.41-.18.18-.32.38-.41.62-.1.24-.15.49-.15.75,0,.28.05.54.15.78.1.24.24.45.43.63.18.19.39.33.63.43.24.11.5.16.78.16.25,0,.47-.06.66-.18.18-.11.33-.27.44-.46l.03.54h.78v-3.73h-.78Zm-.2,2.48c-.09.18-.21.33-.38.44-.16.1-.35.16-.57.16s-.41-.06-.59-.16c-.18-.11-.32-.26-.43-.44-.11-.18-.16-.39-.16-.61s.05-.43.16-.62c.1-.18.24-.33.42-.44.18-.11.38-.16.6-.16s.41.05.57.16.29.26.38.44c.09.18.14.39.14.62s-.05.42-.14.61Z"/>
          <path class="cls-2" d="m87.91,30.13c-.18-.3-.42-.53-.71-.71-.3-.18-.63-.27-1-.27-.26,0-.49.06-.68.18-.2.12-.36.28-.48.47v-2.41h-.78v5.6h.78v-.55c.12.19.28.35.48.47.19.12.42.18.68.18s.53-.05.77-.15c.23-.11.44-.25.62-.43s.33-.39.43-.62c.1-.24.15-.5.15-.77,0-.36-.09-.69-.26-.99Zm-.69,1.6c-.11.18-.25.33-.43.44-.18.11-.38.16-.59.16-.22,0-.41-.05-.57-.16-.17-.11-.3-.25-.39-.44-.09-.18-.14-.38-.14-.61s.05-.43.14-.61c.09-.18.22-.33.39-.44.16-.11.35-.17.57-.17s.41.06.59.17c.18.11.32.25.43.44.1.18.16.39.16.61s-.06.43-.16.61Z"/>
          <path class="cls-2" d="m92.5,29.15c-.22,0-.42.05-.61.14-.19.09-.35.21-.48.36v-.39h-.77v3.73h.77v-2.15c0-.16.04-.32.13-.45.08-.14.19-.25.32-.33.14-.08.29-.12.46-.12.09,0,.19.02.29.05l.31-.78c-.14-.04-.28-.06-.42-.06Z"/>
          <path class="cls-2" d="m96.58,30.54c-.08-.27-.2-.51-.37-.72-.17-.21-.37-.37-.61-.49s-.51-.18-.79-.18c-.26,0-.5.06-.73.16-.22.1-.42.24-.59.42-.17.18-.31.39-.4.63-.1.24-.15.49-.15.77,0,.36.09.69.25.98.17.3.4.54.68.71.28.18.6.27.94.27.37,0,.71-.11,1.01-.32.3-.21.53-.48.68-.81l-.79-.18c-.1.17-.23.3-.38.39-.16.1-.33.14-.52.14-.18,0-.34-.04-.49-.12-.14-.08-.26-.19-.36-.33-.09-.14-.15-.29-.19-.46h2.88c.03-.31.01-.59-.07-.86Zm-2.83.26c.03-.18.1-.34.19-.49.1-.14.23-.26.38-.34.15-.09.31-.13.49-.13s.34.04.49.13c.15.09.28.2.38.35.1.14.16.31.19.48h-2.12Z"/>
          <path class="cls-2" d="m100.43,29.9c-.13-.23-.31-.41-.54-.54-.22-.14-.47-.21-.75-.21-.22,0-.42.05-.61.14-.19.09-.35.21-.48.36v-.39h-.78v3.73h.78v-2.15c0-.16.04-.32.12-.45.08-.14.19-.25.33-.33.14-.08.29-.12.45-.12.17,0,.32.04.46.12.14.08.24.19.32.33.09.13.13.29.13.45v2.15h.77v-2.34c0-.27-.06-.53-.2-.75Z"/>
          <path class="cls-2" d="m102.57,29.26v-1.17h-.78v1.17h-.59v.78h.59v2.95h.77v-2.95h.79v-.78h-.78Z"/>
          <path class="cls-2" d="m106.83,29.26l.04.55c-.14-.19-.31-.35-.52-.47-.21-.12-.45-.19-.72-.19s-.52.05-.75.16c-.23.1-.44.24-.61.41-.18.18-.32.38-.42.62-.1.24-.15.49-.15.75,0,.28.06.54.16.78s.24.45.43.63c.18.19.39.33.63.43.24.11.5.16.77.16s.48-.06.66-.18c.19-.11.34-.27.45-.46l.03.54h.78v-3.73h-.78Zm-.2,2.48c-.09.18-.22.33-.38.44-.16.1-.36.16-.57.16-.22,0-.41-.06-.59-.16-.18-.11-.32-.26-.43-.44-.11-.18-.16-.39-.16-.61s.05-.43.16-.62c.1-.18.24-.33.42-.44.18-.11.38-.16.6-.16s.41.05.57.16c.16.11.29.26.38.44s.14.39.14.62-.05.42-.14.61Z"/>
          <path class="cls-2" d="m108.38,27.39v5.6h.78v-5.6h-.78Z"/>
          <path class="cls-2" d="m113.79,31.02c-.19-.1-.4-.19-.62-.26-.12-.04-.24-.07-.36-.1-.12-.04-.22-.08-.3-.13-.07-.06-.11-.14-.11-.25s.03-.2.1-.27c.06-.08.15-.13.25-.16.11-.04.23-.05.36-.05.1.01.2.03.29.07.1.03.18.08.26.14.07.06.13.13.16.2l.62-.36c-.13-.23-.32-.4-.57-.53-.25-.12-.52-.19-.82-.19-.24,0-.47.05-.68.14-.21.1-.38.23-.51.41-.12.17-.19.38-.19.62,0,.22.06.4.18.55.12.16.28.28.48.37.21.1.43.18.67.23.11.03.22.06.33.09.11.04.2.08.28.14.07.06.11.15.11.26,0,.1-.04.18-.1.25-.07.07-.15.12-.25.15-.1.04-.21.05-.33.05s-.23-.02-.34-.06c-.11-.04-.2-.09-.29-.16-.08-.06-.13-.13-.16-.19l-.67.28c.07.16.18.29.32.41s.3.21.49.27c.19.07.38.11.58.12.25.02.48-.02.71-.11.22-.09.4-.23.55-.41.14-.17.21-.38.21-.61,0-.21-.06-.39-.17-.54-.12-.15-.28-.27-.48-.37Z"/>
          <path class="cls-2" d="m118.44,30.54c-.08-.27-.2-.51-.37-.72-.17-.21-.37-.37-.61-.49-.24-.12-.51-.18-.79-.18-.26,0-.5.06-.73.16-.22.1-.42.24-.59.42s-.3.39-.4.63c-.1.24-.15.49-.15.77,0,.36.09.69.25.98.17.3.4.54.68.71.28.18.6.27.94.27.37,0,.71-.11,1.01-.32.3-.21.53-.48.68-.81l-.79-.18c-.1.17-.23.3-.38.39-.16.1-.33.14-.52.14-.18,0-.34-.04-.49-.12-.14-.08-.26-.19-.36-.33-.09-.14-.15-.29-.18-.46h2.87c.04-.31,0-.59-.07-.86Zm-2.83.26c.03-.18.1-.34.19-.49.1-.14.23-.26.38-.34.15-.09.31-.13.49-.13s.34.04.49.13c.15.09.28.2.38.35.1.14.16.31.19.48h-2.12Z"/>
          <path class="cls-2" d="m121,29.15c-.22,0-.42.05-.61.14-.19.09-.35.21-.48.36v-.39h-.78v3.73h.78v-2.15c0-.16.04-.32.12-.45.08-.14.19-.25.33-.33s.29-.12.45-.12c.1,0,.2.02.29.05l.31-.78c-.13-.04-.27-.06-.41-.06Z"/>
          <path class="cls-2" d="m124.61,29.25l-1.04,2.85-1.03-2.85h-.83l1.36,3.74h1l1.36-3.74h-.82Z"/>
          <path class="cls-2" d="m126.01,29.26v3.73h.78v-3.73h-.78Zm.69-1.24c-.08-.08-.18-.12-.3-.12-.11,0-.21.04-.29.12-.08.08-.12.18-.12.29,0,.12.04.21.12.29.08.08.18.12.3.12.11,0,.21-.04.29-.12.08-.08.12-.17.12-.29,0-.11-.04-.21-.12-.29Z"/>
          <path class="cls-2" d="m129.7,32.21c-.14.07-.29.1-.44.1-.2,0-.38-.05-.55-.16-.17-.11-.3-.26-.39-.44-.1-.18-.15-.37-.15-.58s.05-.42.14-.6c.1-.18.23-.32.4-.43.16-.11.35-.17.55-.17.15,0,.29.03.43.1.14.07.26.16.37.29l.69-.38c-.17-.24-.38-.43-.64-.57s-.55-.22-.85-.22c-.26,0-.5.06-.72.16-.23.1-.43.24-.6.42-.17.18-.3.39-.4.63-.1.24-.15.49-.15.77,0,.36.09.69.26.98.16.3.39.54.67.71.28.18.6.27.94.27.3,0,.59-.07.85-.21.26-.15.47-.33.64-.57l-.69-.38c-.1.12-.22.21-.36.28Z"/>
          <path class="cls-2" d="m134.75,30.54c-.08-.27-.21-.51-.38-.72-.16-.21-.37-.37-.61-.49-.24-.12-.5-.18-.79-.18-.25,0-.49.06-.72.16s-.42.24-.59.42c-.18.18-.31.39-.41.63-.09.24-.14.49-.14.77,0,.36.08.69.25.98.17.3.39.54.68.71.28.18.59.27.93.27.38,0,.71-.11,1.02-.32.3-.21.52-.48.67-.81l-.79-.18c-.1.17-.22.3-.38.39-.15.1-.33.14-.52.14-.17,0-.34-.04-.48-.12-.15-.08-.27-.19-.36-.33s-.16-.29-.19-.46h2.88c.03-.31.01-.59-.07-.86Zm-2.84.26c.04-.18.1-.34.2-.49.1-.14.22-.26.37-.34.15-.09.32-.13.49-.13.18,0,.35.04.5.13.15.09.28.2.38.35.1.14.16.31.19.48h-2.13Z"/>
        </g>
      </g>
      <circle class="cls-2" cx="132.46" cy="3.92" r="1.8"/>
    </g>
  </g>
</svg>